<svg width="148" height="24" viewBox="0 0 148 24" version="1.1" xmlns="http://www.w3.org/2000/svg"><g id="logo-white-green" stroke="none" stroke-width="1" fill="none" fill-rule="evenodd"><g id="logo" fill-rule="nonzero"><path d="M19.487 7.018A12.268 12.268 0 0122.2 17.4c3.846-1.534 5.338-4.106 5.792-6.678 0 0 1.311-4.874 3.349-6.9-4.027.632-4.434-.948-11.854 3.2" id="Shape" fill="#4DBEA4"/><path d="M13.326 12a16.387 16.387 0 00-4.049-6.586s5.6 1.472 8.824 11.924c-3.042-.918-4.34-3.92-4.781-5.338m6.935 6.84c.09-.5 1.574-5.556-1.366-9.662C13.966 3.722 6.546 2.956 6.546 2.956 7.994 5.756 8.04 8.37 9.622 13.7c1.917 5.518 8.99 5.89 9.514 5.9.475.75 1.564 1.76 4.057 2.282l.276-1.314c-2.151-.45-2.938-1.278-3.208-1.734" id="Shape" fill="#4DBEA4"/><path d="M7.34 1.35C4.211 2.824 2.956 6.422 2.956 11.922c0 5.4 1.253 9.02 4.384 10.6l-.351 1.35C2.18 22.186 0 18.438 0 11.944 0 5.4 2.18 1.65 6.989 0l.351 1.35zM30.512 0C35.325 1.648 37.5 5.4 37.5 11.942c0 6.5-2.18 10.244-6.989 11.916l-.375-1.348c3.133-1.574 4.384-5.2 4.384-10.6 0-5.5-1.253-9.094-4.384-10.568L30.512 0zm21.324 17.708c-1.45.557-2.997.824-4.55.786-3.827 0-5.666-1.658-5.074-5.846.546-3.95 2.056-5.564 6.06-5.564a12.7 12.7 0 014.613.786l-.544 2.42-3.565-.022c-1.619 0-2.166.546-2.429 2.508-.285 2.16.089 2.552 1.663 2.552a32.255 32.255 0 003.543-.174l.283 2.554zm6.389-4.734c-.306 2.226-.11 2.748 1.314 2.748 1.378 0 1.817-.588 2.166-3.054.349-2.268.11-2.8-1.226-2.8-1.443 0-1.881.544-2.254 3.1m7.589.008c-.6 4.08-2.252 5.518-6.417 5.518s-5.92-1.57-5.309-5.824c.572-4.122 2.232-5.586 6.456-5.586 4.177 0 5.884 1.616 5.272 5.892m8.507-3.344c-1.663 0-2.056.348-2.385 2.858-.262 1.964-.306 2.748.678 2.684a4.089 4.089 0 002.451-1.134l.589-4.4-1.333-.008zm4.133 8.6h-3.128l-.043-1.832a6.539 6.539 0 01-4.265 2.094c-2.537 0-3.674-1.79-3.129-5.934.6-4.538 2.385-5.476 4.725-5.476 1.174 0 2.345.105 3.5.316-.011-.745.04-1.49.154-2.226l.371-2.2h3.977l-2.162 15.258zm9.319-6.458c.985-.088 1.508-.24 1.6-1.178.066-.72-.219-.852-1.314-.83-1.336.022-1.773.414-2.122 2.182l1.836-.174zm4.354 5.848a12.842 12.842 0 01-4.989.872c-4.637 0-5.9-2.028-5.491-5.824.5-4.514 2.561-5.584 6.475-5.584 4.288 0 5.415 1.418 5.074 3.9-.307 2.03-1.685 2.61-4.558 2.836l-2.954.218c.046 1.158.613 1.376 1.839 1.376.96 0 3.008-.11 4.329-.262l.275 2.468z" id="Shape" fill="#FFF"/><path d="M101.753 4.322c-1.336 0-1.881.306-2.078 1.7l-.24 1.578h3.3l-.221 1.626h-3.3L97.77 19.458a3.231 3.231 0 01-3.477 3.118 22.264 22.264 0 01-2.645-.176l.329-1.572h1.64c1.314 0 1.859-.306 2.058-1.7l1.4-9.9h-1.9l.2-1.528 1.947-.108.263-1.9a3.2 3.2 0 013.488-3.092 25.72 25.72 0 013.127.152l-.349 1.58-2.098-.01zm9.975 4.966h-.6c-1.2 0-2.362.8-4.211 2.16l-.941 6.784h-2.123l1.508-10.646h1.62l-.11 2.444c1.7-1.744 3.367-2.728 4.813-2.728h.569l-.525 1.986zm7.372 2.966c1.313-.086 1.881-.456 2.055-1.68.2-1.462-.545-1.5-2.252-1.5-2.163 0-2.908.588-3.367 3.512l3.564-.332zm3.062 5.63a14.1 14.1 0 01-4.4.612c-3.7 0-4.965-1.9-4.442-5.868.57-4.146 2.034-5.324 5.9-5.324 3.5 0 4.354 1.31 4.047 3.448-.349 2.116-1.574 2.88-4.177 3.076l-3.7.328c-.022 2.138.984 2.572 2.689 2.572 1.183 0 2.713-.13 3.939-.262l.144 1.418zm5.86-4.932c-1.53-.72-2.252-1.548-2.056-3.1.241-2.028 1.707-2.6 4.507-2.552 1.53.026 3.056.15 4.57.372l-.263 1.5c-1.355-.042-2.625-.088-4.243-.11-1.751 0-2.407.044-2.517.938-.108.8.4 1.026 1.271 1.418l2.888 1.31c1.661.764 2.341 1.44 2.12 3.076-.327 2.422-2.056 2.662-5.054 2.662-1.383.003-2.765-.1-4.133-.306l.241-1.57c.985.086 2.362.11 3.347.11 2.691 0 3.391-.218 3.521-1.092.131-.784-.4-.916-1.335-1.352l-2.864-1.304zM140.8 7.15c-.124.882-.3 1.756-.525 2.618 1.855-1.636 3.405-2.468 4.939-2.468a2.337 2.337 0 012.539 2.988l-1.137 7.94h-2.1l1.028-7.416c.175-1.332-.066-1.724-.984-1.724-1.314 0-2.581.894-4.412 2.334l-.941 6.8h-2.127l2.165-15.27h2.1L140.8 7.15z" id="Shape" fill="#4DBEA4"/></g></g></svg>